<svg width="33" height="33" viewBox="0 0 33 33" fill="none" xmlns="http://www.w3.org/2000/svg">
<path d="M26.4714 24.6941C26.7531 24.9759 26.9115 25.3581 26.9115 25.7566C26.9115 26.1551 26.7531 26.5373 26.4714 26.8191C26.1896 27.1009 25.8074 27.2592 25.4089 27.2592C25.0103 27.2592 24.6281 27.1009 24.3464 26.8191L16.4101 18.8804L8.47135 26.8166C8.18956 27.0984 7.80737 27.2567 7.40885 27.2567C7.01034 27.2567 6.62814 27.0984 6.34635 26.8166C6.06456 26.5348 5.90625 26.1526 5.90625 25.7541C5.90625 25.3556 6.06456 24.9734 6.34635 24.6916L14.2851 16.7554L6.34885 8.81663C6.06706 8.53483 5.90875 8.15264 5.90875 7.75413C5.90875 7.35561 6.06706 6.97342 6.34885 6.69163C6.63064 6.40983 7.01284 6.25152 7.41135 6.25152C7.80987 6.25152 8.19206 6.40983 8.47385 6.69163L16.4101 14.6304L24.3489 6.69038C24.6306 6.40858 25.0128 6.25027 25.4114 6.25027C25.8099 6.25027 26.1921 6.40858 26.4739 6.69038C26.7556 6.97217 26.914 7.35436 26.914 7.75288C26.914 8.15139 26.7556 8.53358 26.4739 8.81538L18.5351 16.7554L26.4714 24.6941Z" fill="#1E1F4B"/>
</svg>
