<svg width="17" height="17" viewBox="0 0 17 17" fill="none" xmlns="http://www.w3.org/2000/svg">
<path d="M15.0175 0.21608H1.9805C1.58759 0.21608 1.21077 0.372164 0.932939 0.649996C0.655108 0.927827 0.499023 1.30465 0.499023 1.69756V14.7346C0.499023 15.1275 0.655108 15.5043 0.932939 15.7822C1.21077 16.06 1.58759 16.2161 1.9805 16.2161H15.0175C15.4105 16.2161 15.7873 16.06 16.0651 15.7822C16.3429 15.5043 16.499 15.1275 16.499 14.7346V1.69756C16.499 1.30465 16.3429 0.927827 16.0651 0.649996C15.7873 0.372164 15.4105 0.21608 15.0175 0.21608ZM14.7212 14.4383H2.2768V1.99386H14.7212V14.4383ZM7.31384 11.7716V7.91978C7.31401 7.73506 7.37173 7.55497 7.47898 7.40457C7.58622 7.25416 7.73766 7.1409 7.91224 7.08053C8.08683 7.02016 8.27588 7.01569 8.45313 7.06773C8.63037 7.11976 8.787 7.22573 8.90125 7.37089C9.35273 7.13424 9.85763 7.01808 10.3671 7.03362C10.8767 7.04916 11.3735 7.19589 11.8098 7.45962C12.246 7.72334 12.6068 8.09515 12.8573 8.5391C13.1078 8.98304 13.2395 9.48411 13.2398 9.99386V11.7716C13.2398 12.0074 13.1461 12.2335 12.9794 12.4002C12.8127 12.5669 12.5866 12.6605 12.3509 12.6605C12.1151 12.6605 11.889 12.5669 11.7223 12.4002C11.5556 12.2335 11.462 12.0074 11.462 11.7716V9.99386C11.462 9.67953 11.3371 9.37807 11.1149 9.15581C10.8926 8.93354 10.5911 8.80867 10.2768 8.80867C9.96247 8.80867 9.66101 8.93354 9.43875 9.15581C9.21648 9.37807 9.09162 9.67953 9.09162 9.99386V11.7716C9.09162 12.0074 8.99797 12.2335 8.83127 12.4002C8.66457 12.5669 8.43848 12.6605 8.20273 12.6605C7.96698 12.6605 7.74089 12.5669 7.57419 12.4002C7.40749 12.2335 7.31384 12.0074 7.31384 11.7716ZM6.12865 7.91978V11.7716C6.12865 12.0074 6.035 12.2335 5.8683 12.4002C5.7016 12.5669 5.47551 12.6605 5.23976 12.6605C5.00402 12.6605 4.77792 12.5669 4.61122 12.4002C4.44453 12.2335 4.35088 12.0074 4.35088 11.7716V7.91978C4.35088 7.68404 4.44453 7.45794 4.61122 7.29124C4.77792 7.12454 5.00402 7.03089 5.23976 7.03089C5.47551 7.03089 5.7016 7.12454 5.8683 7.29124C6.035 7.45794 6.12865 7.68404 6.12865 7.91978ZM4.05458 4.66052C4.05458 4.42612 4.12409 4.19697 4.25432 4.00207C4.38455 3.80717 4.56965 3.65526 4.78621 3.56556C5.00278 3.47585 5.24108 3.45238 5.47098 3.49811C5.70089 3.54384 5.91207 3.65672 6.07782 3.82247C6.24357 3.98822 6.35645 4.1994 6.40218 4.42931C6.44791 4.65921 6.42444 4.89751 6.33473 5.11407C6.24503 5.33064 6.09312 5.51574 5.89822 5.64597C5.70331 5.7762 5.47417 5.84571 5.23976 5.84571C4.92543 5.84571 4.62398 5.72084 4.40171 5.49858C4.17945 5.27631 4.05458 4.97485 4.05458 4.66052Z" fill="white"/>
</svg>
