<svg width="33" height="33" viewBox="0 0 33 33" fill="none" xmlns="http://www.w3.org/2000/svg">
<path d="M29.4656 16.635C29.4656 17.0328 29.3075 17.4143 29.0262 17.6957C28.7449 17.977 28.3634 18.135 27.9656 18.135H5.96558C5.56775 18.135 5.18622 17.977 4.90492 17.6957C4.62361 17.4143 4.46558 17.0328 4.46558 16.635C4.46558 16.2372 4.62361 15.8556 4.90492 15.5743C5.18622 15.293 5.56775 15.135 5.96558 15.135H27.9656C28.3634 15.135 28.7449 15.293 29.0262 15.5743C29.3075 15.8556 29.4656 16.2372 29.4656 16.635ZM5.96558 10.135H27.9656C28.3634 10.135 28.7449 9.97696 29.0262 9.69565C29.3075 9.41435 29.4656 9.03282 29.4656 8.63499C29.4656 8.23717 29.3075 7.85564 29.0262 7.57433C28.7449 7.29303 28.3634 7.13499 27.9656 7.13499H5.96558C5.56775 7.13499 5.18622 7.29303 4.90492 7.57433C4.62361 7.85564 4.46558 8.23717 4.46558 8.63499C4.46558 9.03282 4.62361 9.41435 4.90492 9.69565C5.18622 9.97696 5.56775 10.135 5.96558 10.135ZM27.9656 23.135H5.96558C5.56775 23.135 5.18622 23.293 4.90492 23.5743C4.62361 23.8556 4.46558 24.2372 4.46558 24.635C4.46558 25.0328 4.62361 25.4143 4.90492 25.6957C5.18622 25.977 5.56775 26.135 5.96558 26.135H27.9656C28.3634 26.135 28.7449 25.977 29.0262 25.6957C29.3075 25.4143 29.4656 25.0328 29.4656 24.635C29.4656 24.2372 29.3075 23.8556 29.0262 23.5743C28.7449 23.293 28.3634 23.135 27.9656 23.135Z" fill="#1E1F4B"/>
</svg>
